<svg xmlns="http://www.w3.org/2000/svg" width="39" height="30" viewBox="0 0 39 30">
  <g fill-rule="evenodd">
    <path d="M32.7970588 15.8823529L.882352941 15.8823529C.395042868 15.8823529 0 15.4873101 0 15 0 14.5126899.395042868 14.1176471.882352941 14.1176471L32.7970588 14.1176471C33.2843689 14.1176471 33.6794118 14.5126899 33.6794118 15 33.6794118 15.4873101 33.2843689 15.8823529 32.7970588 15.8823529zM19.0676471 12.1058824L2.84117647 12.1058824C2.3538664 12.1058824 1.95882353 11.7108395 1.95882353 11.2235294 1.95882353 10.7362193 2.3538664 10.3411765 2.84117647 10.3411765L19.0676471 10.3411765C19.5549571 10.3411765 19.95 10.7362193 19.95 11.2235294 19.95 11.7108395 19.5549571 12.1058824 19.0676471 12.1058824zM21.8117647 19.6588235L2.84117647 19.6588235C2.3538664 19.6588235 1.95882353 19.2637807 1.95882353 18.7764706 1.95882353 18.2891605 2.3538664 17.8941176 2.84117647 17.8941176L21.8117647 17.8941176C22.2990748 17.8941176 22.6941176 18.2891605 22.6941176 18.7764706 22.6941176 19.2637807 22.2990748 19.6588235 21.8117647 19.6588235z"/>
    <path d="M32.7970588 15.8823529C32.3097488 15.8823529 31.9147059 15.4873101 31.9147059 15 31.9147059 14.5126899 32.3097488 14.1176471 32.7970588 14.1176471 34.5207817 14.1176471 36.0747758 13.0793014 36.734416 11.4867891 37.3940562 9.89427677 37.0294377 8.0612158 35.8105815 6.84235963 34.5917254 5.62350346 32.7586644 5.25888497 31.1661521 5.91852517 29.5736398 6.57816537 28.5352941 8.13215943 28.5352941 9.85588235 28.5352941 10.3431924 28.1402512 10.7382353 27.6529412 10.7382353 27.1656311 10.7382353 26.7705882 10.3431924 26.7705882 9.85588235 26.7705882 6.52755455 29.468731 3.82941176 32.7970588 3.82941176 36.1253866 3.82941176 38.8235294 6.52755455 38.8235294 9.85588235 38.8235294 13.1842102 36.1253866 15.8823529 32.7970588 15.8823529zM19.0676471 12.1058824C18.580337 12.1058824 18.1852941 11.7108395 18.1852941 11.2235294 18.1852941 10.7362193 18.580337 10.3411765 19.0676471 10.3411765 20.79137 10.3411765 22.345364 9.30283084 23.0050042 7.71031851 23.6646444 6.11780618 23.3000259 4.28474521 22.0811698 3.06588904 20.8623136 1.84703288 19.0292526 1.48241438 17.4367403 2.14205458 15.844228 2.80169478 14.8058824 4.35568884 14.8058824 6.07941176 14.8058824 6.56672184 14.4108395 6.96176471 13.9235294 6.96176471 13.4362193 6.96176471 13.0411765 6.56672184 13.0411765 6.07941176 13.0411765 2.75108396 15.7393193.0529411765 19.0676471.0529411765 22.3959749.0529411765 25.0941176 2.75108396 25.0941176 6.07941176 25.0941176 9.40773957 22.3959749 12.1058824 19.0676471 12.1058824zM21.8117647 29.9470588C18.4854518 29.9421993 15.7901536 27.2469011 15.7852941 23.9205882 15.7852941 23.4332782 16.180337 23.0382353 16.6676471 23.0382353 17.1549571 23.0382353 17.55 23.4332782 17.55 23.9205882 17.55 26.2742959 19.4580571 28.1823529 21.8117647 28.1823529 24.1654724 28.1823529 26.0735294 26.2742959 26.0735294 23.9205882 26.0735294 21.5668806 24.1654724 19.6588235 21.8117647 19.6588235 21.3244546 19.6588235 20.9294118 19.2637807 20.9294118 18.7764706 20.9294118 18.2891605 21.3244546 17.8941176 21.8117647 17.8941176 25.1425291 17.8941176 27.8426471 20.5942356 27.8426471 23.925 27.8426471 27.2557644 25.1425291 29.9558824 21.8117647 29.9558824L21.8117647 29.9470588z"/>
  </g>
</svg>
